<svg xmlns="http://www.w3.org/2000/svg" xmlns:svg="http://www.w3.org/2000/svg" xmlns:xlink="http://www.w3.org/1999/xlink" id="svg2" width="2361.17" height="291.956" version="1.1"><defs id="defs4"><linearGradient id="linearGradient2641" x1="22.489" x2="3.595" y1="27.182" y2="27.182" gradientTransform="matrix(0.0012124,-0.37049,-0.36175,-0.0011838,26.803,15.353)" gradientUnits="userSpaceOnUse"><stop style="stop-color:#fff" id="stop4224-8" offset="0"/><stop style="stop-color:#fff;stop-opacity:0" id="stop4226-8" offset="1"/></linearGradient><linearGradient id="linearGradient2644" x1="3.376" x2="47.225" y1="12.861" y2="12.162" gradientTransform="matrix(-0.0010454,0.31945,-0.31335,-0.0010254,24.835,-1.0717)" gradientUnits="userSpaceOnUse"><stop style="stop-color:#ecb56c" id="stop3313" offset="0"/><stop style="stop-color:#e86225" id="stop3315" offset=".824"/><stop style="stop-color:#b07c0b;stop-opacity:0" id="stop3317" offset="1"/></linearGradient><linearGradient id="linearGradient2646" x1="23.002" x2="9" y1="19.07" y2="19" gradientTransform="matrix(0.0032724,-0.99999,0.99999,0.0032724,-0.054776,22.933)" gradientUnits="userSpaceOnUse"><stop style="stop-color:#cc7032" id="stop3305" offset="0"/><stop style="stop-color:#bb2d13" id="stop3307" offset=".827"/><stop style="stop-color:#a87300;stop-opacity:0" id="stop3309" offset="1"/></linearGradient><linearGradient id="linearGradient2676" x1="23.929" x2="23.929" y1="30.773" y2="45.531" gradientTransform="matrix(0.46573,0,0,0.4851,0.82217,-3.1019)" gradientUnits="userSpaceOnUse"><stop style="stop-color:#1e1e1e" id="stop4120-6" offset="0"/><stop style="stop-color:#1e1e1e;stop-opacity:0" id="stop4122-2" offset="1"/></linearGradient><linearGradient id="linearGradient2679" x1="23.904" x2="23.904" y1="35.75" y2="16.007" gradientTransform="matrix(0.46574,0,0,0.48509,0.82236,-1.4684)" gradientUnits="userSpaceOnUse"><stop style="stop-color:#1e1e1e" id="stop4120" offset="0"/><stop style="stop-color:#1e1e1e;stop-opacity:0" id="stop4122" offset="1"/></linearGradient><linearGradient id="linearGradient2682" x1="25.577" x2="25.577" y1="15" y2="44.001" gradientTransform="matrix(0.44186,0,0,0.46429,1.3954,-2.6964)" gradientUnits="userSpaceOnUse"><stop style="stop-color:#fff" id="stop4102" offset="0"/><stop style="stop-color:#fff;stop-opacity:0" id="stop4104" offset="1"/></linearGradient><linearGradient id="linearGradient2685" x1="20.053" x2="19.875" y1="8.163" y2="45.6" gradientTransform="matrix(0.46667,0,0,0.45455,0.80002,-1.7273)" gradientUnits="userSpaceOnUse"><stop style="stop-color:#fff" id="stop4498" offset="0"/><stop style="stop-color:#cfcfcf" id="stop4502" offset=".874"/><stop style="stop-color:#999" id="stop4504" offset="1"/></linearGradient><linearGradient id="linearGradient2687" x1="28.103" x2="28.103" y1="45" y2="14.038" gradientTransform="matrix(0.46667,0,0,0.50064,0.80002,-3.7786)" gradientUnits="userSpaceOnUse"><stop style="stop-color:#727272" id="stop4108" offset="0"/><stop style="stop-color:#bebebe" id="stop4110" offset="1"/></linearGradient><linearGradient id="linearGradient2720-766-26-906" x1="302.86" x2="302.86" y1="366.65" y2="609.51" gradientTransform="matrix(0.065534,0,0,0.024706,-69.188,10.577)" gradientUnits="userSpaceOnUse"><stop style="stop-color:#1e1e1e;stop-opacity:0" id="stop4066" offset="0"/><stop style="stop-color:#1e1e1e" id="stop4068" offset=".5"/><stop style="stop-color:#1e1e1e;stop-opacity:0" id="stop4070" offset="1"/></linearGradient><radialGradient id="radialGradient2722-303-187-273" cx="605.71" cy="486.65" r="117.14" gradientTransform="matrix(0.065534,0,0,0.024706,-69.175,10.577)" gradientUnits="userSpaceOnUse"><stop style="stop-color:#1e1e1e" id="stop4074" offset="0"/><stop style="stop-color:#1e1e1e;stop-opacity:0" id="stop4076" offset="1"/></radialGradient><radialGradient id="radialGradient2724-226-535-494" cx="605.71" cy="486.65" r="117.14" gradientTransform="matrix(-0.065534,0,0,0.024706,-21.829,10.577)" gradientUnits="userSpaceOnUse"><stop style="stop-color:#1e1e1e" id="stop4080" offset="0"/><stop style="stop-color:#1e1e1e;stop-opacity:0" id="stop4082" offset="1"/></radialGradient><linearGradient id="linearGradient3298" x1="302.86" x2="302.86" y1="366.65" y2="609.51" gradientTransform="matrix(0.065534,0,0,0.024706,-69.188,10.577)" gradientUnits="userSpaceOnUse" xlink:href="#linearGradient2720-766-26-906"/><radialGradient id="radialGradient3300" cx="605.71" cy="486.65" r="117.14" gradientTransform="matrix(0.065534,0,0,0.024706,-69.175,10.577)" gradientUnits="userSpaceOnUse" xlink:href="#radialGradient2722-303-187-273"/><radialGradient id="radialGradient3302" cx="605.71" cy="486.65" r="117.14" gradientTransform="matrix(-0.065534,0,0,0.024706,-21.829,10.577)" gradientUnits="userSpaceOnUse" xlink:href="#radialGradient2724-226-535-494"/><linearGradient id="linearGradient3304" x1="20.053" x2="19.875" y1="8.163" y2="45.6" gradientTransform="matrix(3.6083728,0,0,3.5146589,149.74316,161.13233)" gradientUnits="userSpaceOnUse" xlink:href="#linearGradient2685"/><linearGradient id="linearGradient3306" x1="28.103" x2="28.103" y1="45" y2="14.038" gradientTransform="matrix(3.6083728,0,0,3.8710347,149.74316,145.27132)" gradientUnits="userSpaceOnUse" xlink:href="#linearGradient2687"/><linearGradient id="linearGradient3308" x1="25.577" x2="25.577" y1="15" y2="44.001" gradientTransform="matrix(3.4165377,0,0,3.5899703,154.34674,153.63908)" gradientUnits="userSpaceOnUse" xlink:href="#linearGradient2682"/><linearGradient id="linearGradient3310" x1="23.904" x2="23.904" y1="35.75" y2="16.007" gradientTransform="matrix(3.6011819,0,0,3.7507995,149.9159,163.13419)" gradientUnits="userSpaceOnUse" xlink:href="#linearGradient2679"/><linearGradient id="linearGradient3312" x1="23.929" x2="23.929" y1="30.773" y2="45.531" gradientTransform="matrix(3.6011046,0,0,3.7508768,149.91443,150.50368)" gradientUnits="userSpaceOnUse" xlink:href="#linearGradient2676"/></defs><metadata id="metadata7"/><g id="layer1" transform="translate(3.3181774,-620.47743)"><path id="path3059" d="m 26.516497,803.92615 56.689758,52.38524 291.034725,0.9088 -64.32948,-49.70768 z" style="opacity:.62962964;fill:#4d4d9f;fill-opacity:1;fill-rule:evenodd;stroke:none"/><path id="path3061" d="m 26.516497,803.92615 -0.246933,-79.42447 279.906856,7.60083 3.73508,75.41 z" style="opacity:.62962964;fill:#353564;fill-opacity:1;fill-rule:evenodd;stroke:none"/><path id="path3063" d="m 309.9115,807.51251 64.32948,49.70768 -4.6983,-78.85326 -63.36626,-46.26442 z" style="opacity:.62962964;fill:#e9e9ff;fill-opacity:1;fill-rule:evenodd;stroke:none"/><g id="g3288" transform="matrix(1.5149621,0,0,1.3734324,-147.40124,353.99216)"><g style="stroke-width:1.03040004" id="g3511" transform="matrix(3.869179,0,0,3.8660862,412.4049,233.11421)"><rect style="opacity:.40206;fill:url(#linearGradient3298)" id="rect2512" width="31.644" height="6" x="-61.324" y="19.636"/><path style="opacity:.40206;fill:url(#radialGradient3300)" id="path2514" d="m -29.68,19.636 v 5.9997 c 3.3749,0.01129 8.1588,-1.3442 8.1588,-3.0002 0,-1.656 -3.7661,-2.9994 -8.1588,-2.9994 z"/><path style="opacity:.40206;fill:url(#radialGradient3302)" id="path2516" d="m -61.324,19.636 v 5.9997 c -3.3749,0.01129 -8.1588,-1.3442 -8.1588,-3.0002 0,-1.656 3.7661,-2.9994 8.1588,-2.9994 z"/></g><rect style="fill:url(#linearGradient3304);fill-rule:evenodd;stroke:url(#linearGradient3306);stroke-width:7.73217249;stroke-linecap:square;stroke-linejoin:round" id="rect2396" width="162.321" height="100.464" x="155.21" y="217.069" rx="3.608" ry="3.515"/><rect style="opacity:.4;fill:none;stroke:url(#linearGradient3308);stroke-width:7.73217249;stroke-linecap:square" id="rect3331" width="146.911" height="86.144" x="162.888" y="223.659" rx=".282" ry=".271"/><path style="opacity:.5;fill:none;stroke:url(#linearGradient3310);stroke-width:7.73217249" id="path3493" d="m 157.8556,222.00927 78.48928,70.6419 76.8346,-70.6419"/><path style="opacity:.5;fill:none;stroke:url(#linearGradient3312);stroke-width:7.73209476" id="path3341" d="m 210.22483,275.10687 -50.25989,42.18364 m 103.20904,-43.57775 49.03202,43.57775"/></g><path id="path3067" d="m 83.206255,856.31139 -1.02363,-83.25453 287.360055,5.31007 4.6983,78.85326 z" style="fill:#fd5;fill-opacity:1;fill-rule:evenodd;stroke:none"/><path id="path3069" d="m 26.516497,803.92615 56.689758,52.38524 -1.02363,-83.25453 -55.913061,-48.55518 z" style="fill:#d4aa00;fill-opacity:1;fill-rule:evenodd;stroke:none"/><path style="fill:#e3dbdb;fill-opacity:1;stroke:#ccc;stroke-width:10;stroke-linecap:round;stroke-miterlimit:4;stroke-opacity:1;stroke-dasharray:none" id="path3042" d="m 77.781746,324.23856 c 0,15.62097 -12.6633,28.28427 -28.284271,28.28427 -15.620972,0 -28.284272,-12.6633 -28.284272,-28.28427 0,-15.62098 12.6633,-28.28428 28.284272,-28.28428 15.620971,0 28.284271,12.6633 28.284271,28.28428 z" transform="matrix(0.20333228,0,0,0.20333228,18.385155,814.73732)"/><path style="fill:#e3dbdb;fill-opacity:1;stroke:#ccc;stroke-width:10;stroke-linecap:round;stroke-miterlimit:4;stroke-opacity:1;stroke-dasharray:none" id="path3042-2" d="m 77.781746,324.23856 c 0,15.62097 -12.6633,28.28427 -28.284271,28.28427 -15.620972,0 -28.284272,-12.6633 -28.284272,-28.28427 0,-15.62098 12.6633,-28.28428 28.284272,-28.28428 15.620971,0 28.284271,12.6633 28.284271,28.28428 z" transform="matrix(0.20333228,0,0,0.20333228,38.761122,814.73732)"/><path style="fill:#e3dbdb;fill-opacity:1;stroke:#ccc;stroke-width:10;stroke-linecap:round;stroke-miterlimit:4;stroke-opacity:1;stroke-dasharray:none" id="path3042-1" d="m 77.781746,324.23856 c 0,15.62097 -12.6633,28.28427 -28.284271,28.28427 -15.620972,0 -28.284272,-12.6633 -28.284272,-28.28427 0,-15.62098 12.6633,-28.28428 28.284272,-28.28428 15.620971,0 28.284271,12.6633 28.284271,28.28428 z" transform="matrix(0.20333228,0,0,0.20333228,59.137081,814.73732)"/><path style="fill:#e3dbdb;fill-opacity:1;stroke:#ccc;stroke-width:10;stroke-linecap:round;stroke-miterlimit:4;stroke-opacity:1;stroke-dasharray:none" id="path3042-7" d="m 77.781746,324.23856 c 0,15.62097 -12.6633,28.28427 -28.284271,28.28427 -15.620972,0 -28.284272,-12.6633 -28.284272,-28.28427 0,-15.62098 12.6633,-28.28428 28.284272,-28.28428 15.620971,0 28.284271,12.6633 28.284271,28.28428 z" transform="matrix(0.20333228,0,0,0.20333228,79.513053,814.73732)"/><path style="fill:#e3dbdb;fill-opacity:1;stroke:#ccc;stroke-width:10;stroke-linecap:round;stroke-miterlimit:4;stroke-opacity:1;stroke-dasharray:none" id="path3042-6" d="m 77.781746,324.23856 c 0,15.62097 -12.6633,28.28427 -28.284271,28.28427 -15.620972,0 -28.284272,-12.6633 -28.284272,-28.28427 0,-15.62098 12.6633,-28.28428 28.284272,-28.28428 15.620971,0 28.284271,12.6633 28.284271,28.28428 z" transform="matrix(0.20333228,0,0,0.20333228,99.889017,814.73732)"/><path style="fill:#e3dbdb;fill-opacity:1;stroke:#ccc;stroke-width:10;stroke-linecap:round;stroke-miterlimit:4;stroke-opacity:1;stroke-dasharray:none" id="path3042-74" d="m 77.781746,324.23856 c 0,15.62097 -12.6633,28.28427 -28.284271,28.28427 -15.620972,0 -28.284272,-12.6633 -28.284272,-28.28427 0,-15.62098 12.6633,-28.28428 28.284272,-28.28428 15.620971,0 28.284271,12.6633 28.284271,28.28428 z" transform="matrix(0.20333228,0,0,0.20333228,120.26497,814.73732)"/><path style="fill:#e3dbdb;fill-opacity:1;stroke:#ccc;stroke-width:10;stroke-linecap:round;stroke-miterlimit:4;stroke-opacity:1;stroke-dasharray:none" id="path3042-4" d="m 77.781746,324.23856 c 0,15.62097 -12.6633,28.28427 -28.284271,28.28427 -15.620972,0 -28.284272,-12.6633 -28.284272,-28.28427 0,-15.62098 12.6633,-28.28428 28.284272,-28.28428 15.620971,0 28.284271,12.6633 28.284271,28.28428 z" transform="matrix(0.20333228,0,0,0.20333228,140.64095,814.73732)"/><path style="fill:#e3dbdb;fill-opacity:1;stroke:#ccc;stroke-width:10;stroke-linecap:round;stroke-miterlimit:4;stroke-opacity:1;stroke-dasharray:none" id="path3042-5" d="m 77.781746,324.23856 c 0,15.62097 -12.6633,28.28427 -28.284271,28.28427 -15.620972,0 -28.284272,-12.6633 -28.284272,-28.28427 0,-15.62098 12.6633,-28.28428 28.284272,-28.28428 15.620971,0 28.284271,12.6633 28.284271,28.28428 z" transform="matrix(0.20333228,0,0,0.20333228,161.01692,814.73732)"/><path style="fill:#e3dbdb;fill-opacity:1;stroke:#ccc;stroke-width:10;stroke-linecap:round;stroke-miterlimit:4;stroke-opacity:1;stroke-dasharray:none" id="path3042-13" d="m 77.781746,324.23856 c 0,15.62097 -12.6633,28.28427 -28.284271,28.28427 -15.620972,0 -28.284272,-12.6633 -28.284272,-28.28427 0,-15.62098 12.6633,-28.28428 28.284272,-28.28428 15.620971,0 28.284271,12.6633 28.284271,28.28428 z" transform="matrix(0.20333228,0,0,0.20333228,181.39287,814.73732)"/><path style="fill:#e3dbdb;fill-opacity:1;stroke:#ccc;stroke-width:10;stroke-linecap:round;stroke-miterlimit:4;stroke-opacity:1;stroke-dasharray:none" id="path3042-2-9" d="m 77.781746,324.23856 c 0,15.62097 -12.6633,28.28427 -28.284271,28.28427 -15.620972,0 -28.284272,-12.6633 -28.284272,-28.28427 0,-15.62098 12.6633,-28.28428 28.284272,-28.28428 15.620971,0 28.284271,12.6633 28.284271,28.28428 z" transform="matrix(0.20333228,0,0,0.20333228,201.76884,814.73732)"/><path style="fill:#e3dbdb;fill-opacity:1;stroke:#ccc;stroke-width:10;stroke-linecap:round;stroke-miterlimit:4;stroke-opacity:1;stroke-dasharray:none" id="path3042-1-2" d="m 77.781746,324.23856 c 0,15.62097 -12.6633,28.28427 -28.284271,28.28427 -15.620972,0 -28.284272,-12.6633 -28.284272,-28.28427 0,-15.62098 12.6633,-28.28428 28.284272,-28.28428 15.620971,0 28.284271,12.6633 28.284271,28.28428 z" transform="matrix(0.20333228,0,0,0.20333228,222.1448,814.73732)"/><path style="fill:#e3dbdb;fill-opacity:1;stroke:#ccc;stroke-width:10;stroke-linecap:round;stroke-miterlimit:4;stroke-opacity:1;stroke-dasharray:none" id="path3042-7-7" d="m 77.781746,324.23856 c 0,15.62097 -12.6633,28.28427 -28.284271,28.28427 -15.620972,0 -28.284272,-12.6633 -28.284272,-28.28427 0,-15.62098 12.6633,-28.28428 28.284272,-28.28428 15.620971,0 28.284271,12.6633 28.284271,28.28428 z" transform="matrix(0.20333228,0,0,0.20333228,242.52077,814.73732)"/><path style="fill:#e3dbdb;fill-opacity:1;stroke:#ccc;stroke-width:10;stroke-linecap:round;stroke-miterlimit:4;stroke-opacity:1;stroke-dasharray:none" id="path3042-6-2" d="m 77.781746,324.23856 c 0,15.62097 -12.6633,28.28427 -28.284271,28.28427 -15.620972,0 -28.284272,-12.6633 -28.284272,-28.28427 0,-15.62098 12.6633,-28.28428 28.284272,-28.28428 15.620971,0 28.284271,12.6633 28.284271,28.28428 z" transform="matrix(0.20333228,0,0,0.20333228,262.89674,814.73732)"/><path style="fill:#e3dbdb;fill-opacity:1;stroke:#ccc;stroke-width:10;stroke-linecap:round;stroke-miterlimit:4;stroke-opacity:1;stroke-dasharray:none" id="path3042-74-7" d="m 77.781746,324.23856 c 0,15.62097 -12.6633,28.28427 -28.284271,28.28427 -15.620972,0 -28.284272,-12.6633 -28.284272,-28.28427 0,-15.62098 12.6633,-28.28428 28.284272,-28.28428 15.620971,0 28.284271,12.6633 28.284271,28.28428 z" transform="matrix(0.20333228,0,0,0.20333228,283.27271,814.73732)"/><path style="fill:#e3dbdb;fill-opacity:1;stroke:#ccc;stroke-width:10;stroke-linecap:round;stroke-miterlimit:4;stroke-opacity:1;stroke-dasharray:none" id="path3042-4-1" d="m 77.781746,324.23856 c 0,15.62097 -12.6633,28.28427 -28.284271,28.28427 -15.620972,0 -28.284272,-12.6633 -28.284272,-28.28427 0,-15.62098 12.6633,-28.28428 28.284272,-28.28428 15.620971,0 28.284271,12.6633 28.284271,28.28428 z" transform="matrix(0.20333228,0,0,0.20333228,303.64868,814.73732)"/><path style="fill:#e3dbdb;fill-opacity:1;stroke:#ccc;stroke-width:10;stroke-linecap:round;stroke-miterlimit:4;stroke-opacity:1;stroke-dasharray:none" id="path3042-5-4" d="m 77.781746,324.23856 c 0,15.62097 -12.6633,28.28427 -28.284271,28.28427 -15.620972,0 -28.284272,-12.6633 -28.284272,-28.28427 0,-15.62098 12.6633,-28.28428 28.284272,-28.28428 15.620971,0 28.284271,12.6633 28.284271,28.28428 z" transform="matrix(0.20333228,0,0,0.20333228,324.02462,814.73732)"/><path style="fill:#e3dbdb;fill-opacity:1;stroke:#ccc;stroke-width:10;stroke-linecap:round;stroke-miterlimit:4;stroke-opacity:1;stroke-dasharray:none" id="path3042-5-4-4" d="m 77.781746,324.23856 c 0,15.62097 -12.6633,28.28427 -28.284271,28.28427 -15.620972,0 -28.284272,-12.6633 -28.284272,-28.28427 0,-15.62098 12.6633,-28.28428 28.284272,-28.28428 15.620971,0 28.284271,12.6633 28.284271,28.28428 z" transform="matrix(0.20333228,0,0,0.20333228,344.40058,814.73732)"/><path style="fill:#e3dbdb;fill-opacity:1;stroke:#ccc;stroke-width:10;stroke-linecap:round;stroke-miterlimit:4;stroke-opacity:1;stroke-dasharray:none" id="path3042-5-4-8" d="m 77.781746,324.23856 c 0,15.62097 -12.6633,28.28427 -28.284271,28.28427 -15.620972,0 -28.284272,-12.6633 -28.284272,-28.28427 0,-15.62098 12.6633,-28.28428 28.284272,-28.28428 15.620971,0 28.284271,12.6633 28.284271,28.28428 z" transform="matrix(0.20333228,0,0,0.20333228,364.77656,814.73732)"/><text style="font-style:normal;font-weight:400;line-height:0%;font-family:sans-serif;letter-spacing:0;word-spacing:0;fill:#520;fill-opacity:1;stroke:none" id="text3060" x="455.16" y="853.758" xml:space="preserve"><tspan id="tspan3062" x="455.16" y="853.758" style="font-style:normal;font-variant:normal;font-weight:500;font-stretch:normal;font-size:282.022px;line-height:1.25;font-family:Ubuntu;-inkscape-font-specification:'Ubuntu Medium';fill:#4d4d4d">Mail-in-a-Box</tspan></text></g></svg>